<svg width="193" height="36" viewBox="0 0 193 36" fill="none" xmlns="http://www.w3.org/2000/svg">
<path d="M13.4571 25.734L0 16.0158L8.94775 16.0512L22.3694 25.734H13.4571ZM13.4571 4.3468L22.3694 4.31133L8.94775 14.0296H0L13.4571 4.3468Z" fill="#33322B"/>
<path d="M32.1732 28.9064C30.1138 28.9064 28.6225 27.3813 28.6225 25.2887V18.3369C28.6225 16.2443 30.1493 14.7192 32.2443 14.7192H33.0609C33.274 14.7192 33.416 14.5773 33.416 14.3645V11.2434C33.416 9.15074 34.9428 7.62562 37.0377 7.62562H38.9196C39.1326 7.62562 39.2746 7.48374 39.2746 7.27094V4.07882C39.2746 1.7734 40.9435 0.532021 42.8253 0.532021C44.9202 0.532021 46.376 2.05714 46.376 4.14976V20.7488C46.376 23.0542 45.1333 24.2956 42.8253 24.2956H41.9377C41.7246 24.2956 41.5826 24.4374 41.5826 24.6502V25.3596C41.5826 27.665 40.3398 28.9064 38.0319 28.9064H32.1732ZM35.7239 23.2315C35.7239 23.4443 35.866 23.5862 36.079 23.5862H38.9196C39.1326 23.5862 39.2746 23.4443 39.2746 23.2315V13.3005C39.2746 13.0877 39.1326 12.9458 38.9196 12.9458H36.079C35.866 12.9458 35.7239 13.0877 35.7239 13.3005V23.2315Z" fill="#7C9A35"/>
<path d="M52.5745 28.9064C50.2665 28.9064 49.0238 27.665 49.0238 25.3596V15.9606C49.0238 13.6552 50.2665 12.4138 52.5745 12.4138H53.2846C53.4977 12.4138 53.6397 12.2719 53.6397 12.0591V11.1724C53.6397 8.867 54.8824 7.62562 57.1904 7.62562H63.2266C65.5345 7.62562 66.7773 8.90246 66.7773 11.1724V16.8473C66.7773 19.1527 65.7476 20.3941 63.8302 20.3941H56.4802C56.2672 20.3941 56.1252 20.536 56.1252 20.7488V26.2463C56.1252 26.4591 56.2672 26.601 56.4802 26.601H59.3563C59.5694 26.601 59.7114 26.4591 59.7114 26.2463V25.0049C59.7114 23.0187 61.0961 21.9547 63.2621 21.9547C65.57 21.9547 66.7773 23.1606 66.7773 25.5015V25.8562C66.7773 27.8424 65.3925 28.9064 63.2621 28.9064H52.5745ZM56.1252 14.7192C56.1252 14.932 56.2672 15.0739 56.4802 15.0739H60.4925C60.7056 15.0739 60.8476 14.932 60.8476 14.7192V10.2857C60.8476 10.0729 60.7056 9.93104 60.4925 9.93104H56.4802C56.2672 9.93104 56.1252 10.0729 56.1252 10.2857V14.7192Z" fill="#7C9A35"/>
<path d="M77.8402 28.9064C75.7453 28.9064 74.2185 27.3813 74.2185 25.2887V22.1675C74.2185 21.9547 74.0764 21.8128 73.8634 21.8128H73.0467C70.9518 21.8128 69.425 20.2877 69.425 18.1951V11.2434C69.425 9.15074 70.9163 7.62562 72.9757 7.62562C75.0351 7.62562 76.5264 9.15074 76.5264 11.2434V23.2315C76.5264 23.4443 76.6684 23.5862 76.8815 23.5862H79.722C79.9351 23.5862 80.0771 23.4443 80.0771 23.2315V11.2434C80.0771 9.15074 81.5684 7.62562 83.6278 7.62562C85.6872 7.62562 87.1785 9.15074 87.1785 11.2434V18.1951C87.1785 20.2877 85.6517 21.8128 83.5568 21.8128H82.7401C82.5271 21.8128 82.3851 21.9547 82.3851 22.1675V25.2887C82.3851 27.3813 80.8583 28.9064 78.7634 28.9064H77.8402Z" fill="#7C9A35"/>
<path d="M108.893 36C106.799 36 105.272 34.4749 105.272 32.3823V29.2611C105.272 29.0483 105.13 28.9064 104.917 28.9064H98.2414C96.1465 28.9064 94.6197 27.3813 94.6197 25.2887V24.6502C94.6197 24.4374 94.4777 24.2956 94.2646 24.2956H93.448C91.3531 24.2956 89.8263 22.7704 89.8263 20.6778V15.7833C89.8263 13.4778 91.069 12.2365 93.377 12.2365H94.2646C94.4777 12.2365 94.6197 12.0946 94.6197 11.8818V11.1724C94.6197 8.867 95.8624 7.62562 98.1704 7.62562H104.029C106.088 7.62562 107.58 9.15074 107.58 11.2434V28.5517C107.58 28.7645 107.722 28.9064 107.935 28.9064H108.822C111.095 28.9064 112.409 30.1478 112.409 32.4177V32.4532C112.409 34.7232 111.166 36 108.893 36ZM96.9276 23.2315C96.9276 23.4443 97.0697 23.5862 97.2827 23.5862H100.123C100.336 23.5862 100.478 23.4443 100.478 23.2315V13.3005C100.478 13.0877 100.336 12.9458 100.123 12.9458H97.2827C97.0697 12.9458 96.9276 13.0877 96.9276 13.3005V23.2315Z" fill="#33322B"/>
<path d="M125.852 7.62562C127.911 7.62562 129.403 9.15074 129.403 11.2434V25.2887C129.403 27.3813 127.876 28.9064 125.781 28.9064H120.064C117.969 28.9064 116.443 27.3813 116.443 25.2887V22.1675C116.443 21.9547 116.301 21.8128 116.088 21.8128H115.271C113.176 21.8128 111.649 20.2877 111.649 18.1951V11.2434C111.649 9.15074 113.14 7.62562 115.2 7.62562C117.259 7.62562 118.751 9.15074 118.751 11.2434V23.2315C118.751 23.4443 118.893 23.5862 119.106 23.5862H121.946C122.159 23.5862 122.301 23.4443 122.301 23.2315V11.2434C122.301 9.15074 123.793 7.62562 125.852 7.62562Z" fill="#33322B"/>
<path d="M135.246 7.0936H138.761C141.069 7.0936 142.312 5.85222 142.312 3.5468C142.312 1.24138 141.069 0 138.761 0H135.246C132.938 0 131.695 1.24138 131.695 3.5468C131.695 5.85222 132.938 7.0936 135.246 7.0936ZM132.05 20.6778V11.2434C132.05 9.15074 133.542 7.62562 135.601 7.62562C137.66 7.62562 139.152 9.15074 139.152 11.2434V21.4581C139.152 21.6709 139.294 21.8128 139.507 21.8128H140.395C142.667 21.8128 143.981 23.0542 143.981 25.3241V25.3596C143.981 27.6296 142.738 28.9064 140.466 28.9064C138.371 28.9064 136.844 27.3813 136.844 25.2887V24.6502C136.844 24.4374 136.702 24.2956 136.489 24.2956H135.672C133.577 24.2956 132.05 22.7704 132.05 20.6778Z" fill="#33322B"/>
<path d="M149.483 28.9064C147.176 28.9064 145.933 27.6296 145.933 25.3596V20.2877C145.933 17.9823 146.962 16.7409 148.88 16.7409H156.23C156.443 16.7409 156.585 16.599 156.585 16.3862V10.2857C156.585 10.0729 156.443 9.93104 156.23 9.93104H153.354C153.141 9.93104 152.999 10.0729 152.999 10.2857V11.1724C152.999 13.1586 151.614 14.2227 149.448 14.2227C146.927 14.2227 145.933 13.0168 145.933 10.6759C145.933 8.68966 147.318 7.62562 149.448 7.62562H160.136C162.444 7.62562 163.686 8.867 163.686 11.1724V11.7754C163.686 14.0808 162.444 15.3222 160.136 15.3222H158.893C158.68 15.3222 158.538 15.464 158.538 15.6768C158.538 17.9823 157.295 19.2236 154.987 19.2236H152.218C152.004 19.2236 151.862 19.3655 151.862 19.5783V23.2315C151.862 23.4443 152.004 23.5862 152.218 23.5862H156.23C156.443 23.5862 156.585 23.4443 156.585 23.2315V22.4158C156.585 20.4296 158.005 19.3655 160.171 19.3655C162.479 19.3655 163.686 20.5714 163.686 22.9123V25.8562C163.686 27.8424 162.301 28.9064 160.171 28.9064H149.483Z" fill="#33322B"/>
<path d="M179.543 25.734H170.631L184.052 16.0512L193 16.0158L179.543 25.734ZM179.543 4.3468L193 14.0296H184.052L170.631 4.31133L179.543 4.3468Z" fill="#33322B"/>
<path d="M111.039 30.4591C111.192 30.409 111.229 30.4071 111.308 30.4472C111.457 30.5269 111.077 30.8513 110.117 31.4631L110.079 31.4839C109.883 31.5784 109.584 31.5282 109.601 31.3961C109.614 31.2944 110.741 30.5607 111.039 30.4591Z" fill="#C6D97E"/>
<path d="M106.892 30.1765C106.832 30.0753 106.935 29.9752 107.108 30.0811C107.235 30.1577 107.399 30.336 107.59 30.611C107.951 31.1214 107.956 31.1355 107.838 31.1935L107.799 31.2082C107.605 31.2608 107.374 30.9956 106.892 30.1765Z" fill="#C6D97E"/>
<path d="M108.899 30.0241C108.962 29.949 109.155 29.9506 109.201 30.03C109.265 30.1349 109.324 31.013 109.324 31.8601C109.322 31.9732 109.34 32.0424 109.374 32.0603C109.446 32.0997 110.428 32.5572 110.621 32.6424C110.905 32.7661 110.944 33.0316 110.69 33.0553C109.583 33.1481 109.331 33.1385 109.29 33.1399L109.176 33.4518C108.681 34.8149 108.266 35.2346 108.191 34.4577C108.154 34.0961 108.037 33.3336 108.023 33.1784C108.014 33.0706 108.004 33.0661 107.598 32.8799L106.883 32.5532C106.073 32.1845 106.173 32.2108 108.115 31.8631L108.261 31.4819C108.484 30.8976 108.835 30.1001 108.899 30.0241ZM108.971 31.4907C108.932 30.7954 108.932 30.7953 108.863 30.9631L108.477 31.9267C108.438 32.0216 108.354 32.0777 108.265 32.0662C108.173 32.0542 107.335 32.2118 107.161 32.2392C107.021 32.2611 107.073 32.2981 107.42 32.4299C108.109 32.6929 108.285 32.7823 108.293 32.8766C108.303 32.9813 108.427 33.4378 108.467 33.8199C108.501 34.1245 108.512 34.1159 108.706 33.6243C108.964 32.9719 109.034 32.8317 109.162 32.8217L109.3 32.8268C109.537 32.8234 110.108 32.7595 110.133 32.7424C110.166 32.7197 109.524 32.4199 109.237 32.3193C109.007 32.2393 109.019 32.274 108.971 31.4907Z" fill="#C6D97E"/>
<path d="M109.422 33.537C109.452 33.3094 109.955 33.749 110.423 34.4133L110.405 34.4432L110.432 34.4255C110.607 34.6716 110.523 34.801 110.28 34.6628C110.165 34.5973 109.413 33.6091 109.422 33.537ZM110.432 34.4255L110.405 34.4432L110.423 34.4133C110.426 34.4174 110.429 34.4213 110.432 34.4255Z" fill="#C6D97E"/>
<path d="M106.411 33.8929L106.312 33.8745C106.183 33.8402 106.212 33.7791 106.444 33.6433L106.411 33.8929ZM106.867 33.4184C107.353 33.1716 107.583 33.1279 107.611 33.2714C107.629 33.3638 106.565 33.9129 106.411 33.8929L106.444 33.6433C106.545 33.5839 106.685 33.51 106.867 33.4184Z" fill="#C6D97E"/>
<path d="M139.356 0.981918C139.48 0.878086 139.514 0.862343 139.601 0.870349C139.77 0.888354 139.539 1.33109 138.878 2.2578L138.851 2.29117C138.704 2.45217 138.409 2.51726 138.375 2.38845C138.349 2.28924 139.119 1.18738 139.356 0.981918Z" fill="#C6D97E"/>
<path d="M135.406 2.27077C135.312 2.19945 135.37 2.06814 135.57 2.10156C135.717 2.12506 135.935 2.22916 136.216 2.41266C136.742 2.751 136.751 2.76217 136.664 2.86004L136.634 2.88814C136.473 3.00964 136.159 2.85015 135.406 2.27077Z" fill="#C6D97E"/>
<path d="M137.209 1.37908C137.239 1.28576 137.419 1.21503 137.492 1.27124C137.59 1.34492 137.974 2.13697 138.291 2.9225C138.332 3.02788 138.375 3.08548 138.413 3.08925C138.495 3.09892 139.577 3.15586 139.787 3.16273C140.097 3.17106 140.233 3.40271 140.007 3.51953C139.015 4.01963 138.777 4.10518 138.74 4.12159L138.751 4.45352C138.804 5.90251 138.576 6.44692 138.215 5.75488C138.045 5.43319 137.65 4.77018 137.58 4.63126C137.531 4.53475 137.52 4.53414 137.074 4.51346L136.288 4.4782C135.399 4.43919 135.502 4.42612 137.172 3.37736L137.164 2.96924C137.152 2.34406 137.179 1.47333 137.209 1.37908ZM137.826 2.71182C137.529 2.08192 137.529 2.08182 137.528 2.26303L137.531 3.30093C137.531 3.40356 137.474 3.48694 137.387 3.50946C137.298 3.53276 136.579 3.99259 136.428 4.08304C136.307 4.15554 136.369 4.17039 136.74 4.16292C137.478 4.14881 137.674 4.1661 137.717 4.25059C137.765 4.34399 138.051 4.72084 138.232 5.06007C138.377 5.32983 138.384 5.31775 138.38 4.78924C138.374 4.08797 138.387 3.9316 138.502 3.87446L138.632 3.82766C138.85 3.73589 139.356 3.46313 139.373 3.4377C139.394 3.40462 138.687 3.36655 138.383 3.38061C138.14 3.39251 138.164 3.42017 137.826 2.71182Z" fill="#C6D97E"/>
<path d="M139.011 4.44049C138.954 4.21819 139.585 4.43772 140.268 4.87882L140.263 4.91297L140.281 4.88675C140.535 5.0496 140.506 5.2009 140.229 5.16339C140.098 5.14585 139.03 4.51089 139.011 4.44049ZM140.281 4.88675L140.263 4.91297L140.268 4.87882C140.272 4.88155 140.276 4.884 140.281 4.88675Z" fill="#C6D97E"/>
<path d="M136.353 5.8968L136.254 5.91682C136.122 5.93324 136.126 5.86579 136.289 5.65322L136.353 5.8968ZM136.598 5.2863C136.956 4.87566 137.152 4.74926 137.232 4.87184C137.284 4.95077 136.503 5.85769 136.353 5.8968L136.289 5.65322C136.361 5.56032 136.463 5.43948 136.598 5.2863Z" fill="#C6D97E"/>
</svg>
