<svg width="193" height="36" viewBox="0 0 193 36" fill="none" xmlns="http://www.w3.org/2000/svg">
<path d="M13.4571 25.734L0 16.0158L8.94775 16.0512L22.3694 25.734H13.4571ZM13.4571 4.3468L22.3694 4.31133L8.94775 14.0296H0L13.4571 4.3468Z" fill="#E7E1D2"/>
<path d="M32.1732 28.9064C30.1138 28.9064 28.6225 27.3813 28.6225 25.2887V18.3369C28.6225 16.2443 30.1493 14.7192 32.2443 14.7192H33.0609C33.274 14.7192 33.416 14.5773 33.416 14.3645V11.2434C33.416 9.15074 34.9428 7.62562 37.0377 7.62562H38.9196C39.1326 7.62562 39.2746 7.48374 39.2746 7.27094V4.07882C39.2746 1.7734 40.9435 0.532021 42.8253 0.532021C44.9202 0.532021 46.376 2.05714 46.376 4.14976V20.7488C46.376 23.0542 45.1333 24.2956 42.8253 24.2956H41.9377C41.7246 24.2956 41.5826 24.4374 41.5826 24.6502V25.3596C41.5826 27.665 40.3398 28.9064 38.0319 28.9064H32.1732ZM35.7239 23.2315C35.7239 23.4443 35.866 23.5862 36.079 23.5862H38.9196C39.1326 23.5862 39.2746 23.4443 39.2746 23.2315V13.3005C39.2746 13.0877 39.1326 12.9458 38.9196 12.9458H36.079C35.866 12.9458 35.7239 13.0877 35.7239 13.3005V23.2315Z" fill="#AEC84B"/>
<path d="M52.5745 28.9064C50.2665 28.9064 49.0238 27.665 49.0238 25.3596V15.9606C49.0238 13.6552 50.2665 12.4138 52.5745 12.4138H53.2846C53.4977 12.4138 53.6397 12.2719 53.6397 12.0591V11.1724C53.6397 8.867 54.8824 7.62562 57.1904 7.62562H63.2266C65.5345 7.62562 66.7773 8.90246 66.7773 11.1724V16.8473C66.7773 19.1527 65.7476 20.3941 63.8302 20.3941H56.4802C56.2672 20.3941 56.1252 20.536 56.1252 20.7488V26.2463C56.1252 26.4591 56.2672 26.601 56.4802 26.601H59.3563C59.5694 26.601 59.7114 26.4591 59.7114 26.2463V25.0049C59.7114 23.0187 61.0961 21.9547 63.2621 21.9547C65.57 21.9547 66.7773 23.1606 66.7773 25.5015V25.8562C66.7773 27.8424 65.3925 28.9064 63.2621 28.9064H52.5745ZM56.1252 14.7192C56.1252 14.932 56.2672 15.0739 56.4802 15.0739H60.4925C60.7056 15.0739 60.8476 14.932 60.8476 14.7192V10.2857C60.8476 10.0729 60.7056 9.93104 60.4925 9.93104H56.4802C56.2672 9.93104 56.1252 10.0729 56.1252 10.2857V14.7192Z" fill="#AEC84B"/>
<path d="M77.8402 28.9064C75.7453 28.9064 74.2185 27.3813 74.2185 25.2887V22.1675C74.2185 21.9547 74.0764 21.8128 73.8634 21.8128H73.0467C70.9518 21.8128 69.425 20.2877 69.425 18.1951V11.2434C69.425 9.15074 70.9163 7.62562 72.9757 7.62562C75.0351 7.62562 76.5264 9.15074 76.5264 11.2434V23.2315C76.5264 23.4443 76.6684 23.5862 76.8815 23.5862H79.722C79.9351 23.5862 80.0771 23.4443 80.0771 23.2315V11.2434C80.0771 9.15074 81.5684 7.62562 83.6278 7.62562C85.6872 7.62562 87.1785 9.15074 87.1785 11.2434V18.1951C87.1785 20.2877 85.6517 21.8128 83.5568 21.8128H82.7401C82.5271 21.8128 82.3851 21.9547 82.3851 22.1675V25.2887C82.3851 27.3813 80.8583 28.9064 78.7634 28.9064H77.8402Z" fill="#AEC84B"/>
<path d="M108.893 36C106.799 36 105.272 34.4749 105.272 32.3823V29.2611C105.272 29.0483 105.13 28.9064 104.917 28.9064H98.2414C96.1465 28.9064 94.6197 27.3813 94.6197 25.2887V24.6502C94.6197 24.4374 94.4777 24.2956 94.2646 24.2956H93.448C91.3531 24.2956 89.8263 22.7704 89.8263 20.6778V15.7833C89.8263 13.4778 91.069 12.2365 93.377 12.2365H94.2646C94.4777 12.2365 94.6197 12.0946 94.6197 11.8818V11.1724C94.6197 8.867 95.8624 7.62562 98.1704 7.62562H104.029C106.088 7.62562 107.58 9.15074 107.58 11.2434V28.5517C107.58 28.7645 107.722 28.9064 107.935 28.9064H108.822C111.095 28.9064 112.409 30.1478 112.409 32.4177V32.4532C112.409 34.7232 111.166 36 108.893 36ZM96.9276 23.2315C96.9276 23.4443 97.0697 23.5862 97.2827 23.5862H100.123C100.336 23.5862 100.478 23.4443 100.478 23.2315V13.3005C100.478 13.0877 100.336 12.9458 100.123 12.9458H97.2827C97.0697 12.9458 96.9276 13.0877 96.9276 13.3005V23.2315Z" fill="#E7E1D2"/>
<path d="M125.852 7.62562C127.911 7.62562 129.403 9.15074 129.403 11.2434V25.2887C129.403 27.3813 127.876 28.9064 125.781 28.9064H120.064C117.969 28.9064 116.443 27.3813 116.443 25.2887V22.1675C116.443 21.9547 116.301 21.8128 116.088 21.8128H115.271C113.176 21.8128 111.649 20.2877 111.649 18.1951V11.2434C111.649 9.15074 113.14 7.62562 115.2 7.62562C117.259 7.62562 118.751 9.15074 118.751 11.2434V23.2315C118.751 23.4443 118.893 23.5862 119.106 23.5862H121.946C122.159 23.5862 122.301 23.4443 122.301 23.2315V11.2434C122.301 9.15074 123.793 7.62562 125.852 7.62562Z" fill="#E7E1D2"/>
<path d="M135.246 7.0936H138.761C141.069 7.0936 142.312 5.85222 142.312 3.5468C142.312 1.24138 141.069 0 138.761 0H135.246C132.938 0 131.695 1.24138 131.695 3.5468C131.695 5.85222 132.938 7.0936 135.246 7.0936ZM132.05 20.6778V11.2434C132.05 9.15074 133.542 7.62562 135.601 7.62562C137.66 7.62562 139.152 9.15074 139.152 11.2434V21.4581C139.152 21.6709 139.294 21.8128 139.507 21.8128H140.395C142.667 21.8128 143.981 23.0542 143.981 25.3241V25.3596C143.981 27.6296 142.738 28.9064 140.466 28.9064C138.371 28.9064 136.844 27.3813 136.844 25.2887V24.6502C136.844 24.4374 136.702 24.2956 136.489 24.2956H135.672C133.577 24.2956 132.05 22.7704 132.05 20.6778Z" fill="#E7E1D2"/>
<path d="M149.483 28.9064C147.176 28.9064 145.933 27.6296 145.933 25.3596V20.2877C145.933 17.9823 146.962 16.7409 148.88 16.7409H156.23C156.443 16.7409 156.585 16.599 156.585 16.3862V10.2857C156.585 10.0729 156.443 9.93104 156.23 9.93104H153.354C153.141 9.93104 152.999 10.0729 152.999 10.2857V11.1724C152.999 13.1586 151.614 14.2227 149.448 14.2227C146.927 14.2227 145.933 13.0168 145.933 10.6759C145.933 8.68966 147.318 7.62562 149.448 7.62562H160.136C162.444 7.62562 163.686 8.867 163.686 11.1724V11.7754C163.686 14.0808 162.444 15.3222 160.136 15.3222H158.893C158.68 15.3222 158.538 15.464 158.538 15.6768C158.538 17.9823 157.295 19.2236 154.987 19.2236H152.218C152.004 19.2236 151.862 19.3655 151.862 19.5783V23.2315C151.862 23.4443 152.004 23.5862 152.218 23.5862H156.23C156.443 23.5862 156.585 23.4443 156.585 23.2315V22.4158C156.585 20.4296 158.005 19.3655 160.171 19.3655C162.479 19.3655 163.686 20.5714 163.686 22.9123V25.8562C163.686 27.8424 162.301 28.9064 160.171 28.9064H149.483Z" fill="#E7E1D2"/>
<path d="M179.543 25.734H170.631L184.052 16.0512L193 16.0158L179.543 25.734ZM179.543 4.3468L193 14.0296H184.052L170.631 4.31133L179.543 4.3468Z" fill="#E7E1D2"/>
<path d="M111.06 30.2473C111.213 30.1973 111.25 30.1955 111.328 30.2357C111.478 30.3154 111.098 30.6396 110.137 31.2514L110.099 31.2722C109.903 31.3667 109.605 31.3166 109.622 31.1844C109.635 31.0827 110.763 30.3488 111.06 30.2473Z" fill="#5C7327"/>
<path d="M107.129 29.8697C107.256 29.9462 107.42 30.1241 107.611 30.399C107.971 30.9095 107.976 30.9238 107.859 30.9819L107.82 30.9963C107.637 31.0463 107.421 30.8123 106.992 30.0958L107.129 29.8697ZM106.913 29.9648C106.853 29.8636 106.956 29.7638 107.129 29.8697L106.992 30.0958C106.966 30.0537 106.94 30.0103 106.913 29.9648Z" fill="#5C7327"/>
<path d="M108.919 29.8121C108.982 29.737 109.176 29.7391 109.222 29.8185C109.285 29.9241 109.344 30.802 109.344 31.6487C109.343 31.7616 109.361 31.8304 109.395 31.8484C109.467 31.8877 110.449 32.3456 110.641 32.4306C110.926 32.5543 110.964 32.8196 110.711 32.8433C109.604 32.9361 109.351 32.9266 109.311 32.928L109.197 33.2402C108.702 34.6032 108.287 35.0226 108.211 34.2457C108.175 33.8843 108.057 33.1227 108.044 32.967C108.035 32.8591 108.025 32.8544 107.619 32.6682L106.904 32.3418C106.094 31.973 106.194 31.9994 108.135 31.6516L108.282 31.2704C108.505 30.6858 108.856 29.8872 108.919 29.8121ZM108.992 31.2793C108.952 30.5838 108.952 30.5837 108.884 30.7515L108.498 31.7152C108.459 31.8102 108.374 31.8661 108.286 31.8545C108.194 31.8426 107.356 32.0003 107.182 32.0277C107.042 32.0496 107.094 32.0863 107.44 32.2181C108.13 32.4811 108.306 32.5706 108.314 32.6649C108.323 32.7696 108.448 33.2263 108.488 33.6084C108.522 33.9127 108.533 33.904 108.727 33.4124C109.021 32.6673 109.071 32.5903 109.242 32.6124C109.383 32.6308 110.125 32.5503 110.154 32.5308C110.184 32.5072 109.544 32.2081 109.258 32.1076C109.028 32.0277 109.04 32.0624 108.992 31.2793Z" fill="#5C7327"/>
<path d="M109.443 33.3253C109.473 33.0961 109.982 33.5426 110.452 34.214C110.627 34.4601 110.543 34.5892 110.301 34.4509C110.186 34.3853 109.434 33.3975 109.443 33.3253Z" fill="#5C7327"/>
<path d="M106.432 33.6808C106.2 33.6507 106.185 33.5951 106.464 33.4313L106.432 33.6808ZM106.888 33.2065C107.374 32.9598 107.603 32.9162 107.631 33.0596C107.649 33.152 106.586 33.7008 106.432 33.6808L106.464 33.4313C106.565 33.3719 106.705 33.2981 106.888 33.2065Z" fill="#5C7327"/>
<path d="M139.377 0.77004C139.501 0.666322 139.534 0.650766 139.622 0.658769C139.79 0.676807 139.56 1.11949 138.898 2.04616L138.871 2.07955C138.725 2.24053 138.429 2.3057 138.395 2.17676C138.37 2.07754 139.14 0.975206 139.377 0.77004Z" fill="#5C7327"/>
<path d="M135.591 1.89013C135.737 1.91364 135.956 2.01737 136.236 2.20077C136.762 2.53916 136.772 2.5506 136.685 2.64848L136.654 2.67618C136.503 2.79125 136.215 2.65497 135.549 2.15119L135.591 1.89013ZM135.427 2.0591C135.333 1.98779 135.391 1.85671 135.591 1.89013L135.549 2.15119C135.509 2.12158 135.468 2.09129 135.427 2.0591Z" fill="#5C7327"/>
<path d="M137.229 1.16707C137.26 1.0738 137.44 1.0034 137.513 1.05964C137.611 1.13396 137.995 1.92597 138.312 2.71114C138.353 2.81629 138.395 2.87345 138.434 2.87732C138.515 2.88698 139.598 2.94407 139.808 2.95093C140.118 2.95929 140.253 3.19074 140.027 3.30755C139.035 3.80773 138.798 3.89341 138.761 3.9098L138.772 4.24188C138.824 5.69083 138.596 6.23506 138.235 5.54299C138.066 5.22144 137.671 4.5592 137.601 4.41981C137.552 4.32321 137.541 4.32248 137.094 4.30179L136.309 4.26667C135.42 4.22766 135.522 4.21469 137.192 3.16593L137.185 2.75773C137.173 2.13218 137.199 1.26041 137.229 1.16707ZM137.847 2.50044C137.549 1.87035 137.549 1.87016 137.549 2.05144L137.552 3.0894C137.551 3.19207 137.494 3.27539 137.408 3.29786C137.318 3.32116 136.6 3.78084 136.449 3.87144C136.328 3.94396 136.389 3.95862 136.76 3.95114C137.499 3.93702 137.695 3.95432 137.738 4.03885C137.786 4.13225 138.072 4.50924 138.253 4.84846C138.398 5.11804 138.405 5.10576 138.401 4.57731C138.394 3.77642 138.412 3.68631 138.578 3.64302C138.716 3.60724 139.374 3.25503 139.394 3.22596C139.413 3.19292 138.707 3.15491 138.404 3.16895C138.161 3.18085 138.185 3.20857 137.847 2.50044Z" fill="#5C7327"/>
<path d="M139.032 4.22887C138.974 4.00504 139.614 4.22854 140.301 4.67526C140.556 4.8381 140.526 4.98912 140.25 4.9516C140.118 4.93392 139.05 4.29927 139.032 4.22887Z" fill="#5C7327"/>
<path d="M136.408 5.63425C136.182 5.69281 136.147 5.64703 136.344 5.39074L136.408 5.63425ZM136.653 5.02382C137.011 4.61338 137.207 4.48722 137.287 4.60962C137.338 4.68855 136.558 5.59514 136.408 5.63425L136.344 5.39074C136.416 5.29785 136.518 5.17698 136.653 5.02382Z" fill="#5C7327"/>
</svg>
