<svg width="300" height="56" viewBox="0 0 300 56" fill="none" xmlns="http://www.w3.org/2000/svg">
<path d="M20.9178 39.9822L0 24.8833L13.9084 24.9384L34.7711 39.9822H20.9178ZM20.9178 6.7535L34.7711 6.6984L13.9084 21.7973H0L20.9178 6.7535Z" fill="#33322B"/>
<path d="M50.0102 44.9111C46.8091 44.9111 44.491 42.5415 44.491 39.2903V28.4896C44.491 25.2384 46.8643 22.8688 50.1206 22.8688H51.39C51.7212 22.8688 51.9419 22.6484 51.9419 22.3178V17.4685C51.9419 14.2172 54.3152 11.8477 57.5715 11.8477H60.4967C60.8279 11.8477 61.0486 11.6273 61.0486 11.2967V6.33715C61.0486 2.75528 63.6427 0.826587 66.5679 0.826587C69.8242 0.826587 72.0871 3.19613 72.0871 6.44736V32.2368C72.0871 35.8187 70.1554 37.7473 66.5679 37.7473H65.1881C64.8569 37.7473 64.6361 37.9678 64.6361 38.2984V39.4005C64.6361 42.9824 62.7044 44.9111 59.1169 44.9111H50.0102ZM55.5294 36.0942C55.5294 36.4248 55.7502 36.6452 56.0814 36.6452H60.4967C60.8279 36.6452 61.0486 36.4248 61.0486 36.0942V20.6646C61.0486 20.334 60.8279 20.1136 60.4967 20.1136H56.0814C55.7502 20.1136 55.5294 20.334 55.5294 20.6646V36.0942Z" fill="#7C9A35"/>
<path d="M81.722 44.9111C78.1345 44.9111 76.2028 42.9824 76.2028 39.4005V24.7975C76.2028 21.2157 78.1345 19.287 81.722 19.287H82.8258C83.157 19.287 83.3778 19.0665 83.3778 18.7359V17.3583C83.3778 13.7764 85.3095 11.8477 88.897 11.8477H98.2796C101.867 11.8477 103.799 13.8315 103.799 17.3583V26.1752C103.799 29.757 102.198 31.6857 99.2179 31.6857H87.7931C87.462 31.6857 87.2412 31.9062 87.2412 32.2368V40.7782C87.2412 41.1088 87.462 41.3292 87.7931 41.3292H92.2637C92.5948 41.3292 92.8156 41.1088 92.8156 40.7782V38.8495C92.8156 35.7635 94.9681 34.1104 98.3348 34.1104C101.922 34.1104 103.799 35.984 103.799 39.6209V40.172C103.799 43.2579 101.646 44.9111 98.3348 44.9111H81.722ZM87.2412 22.8688C87.2412 23.1995 87.462 23.4199 87.7931 23.4199H94.0298C94.361 23.4199 94.5818 23.1995 94.5818 22.8688V15.9806C94.5818 15.65 94.361 15.4296 94.0298 15.4296H87.7931C87.462 15.4296 87.2412 15.65 87.2412 15.9806V22.8688Z" fill="#7C9A35"/>
<path d="M120.995 44.9111C117.739 44.9111 115.365 42.5415 115.365 39.2903V34.441C115.365 34.1104 115.145 33.89 114.814 33.89H113.544C110.288 33.89 107.915 31.5204 107.915 28.2692V17.4685C107.915 14.2172 110.233 11.8477 113.434 11.8477C116.635 11.8477 118.953 14.2172 118.953 17.4685V36.0942C118.953 36.4248 119.174 36.6452 119.505 36.6452H123.92C124.251 36.6452 124.472 36.4248 124.472 36.0942V17.4685C124.472 14.2172 126.79 11.8477 129.991 11.8477C133.193 11.8477 135.511 14.2172 135.511 17.4685V28.2692C135.511 31.5204 133.137 33.89 129.881 33.89H128.612C128.28 33.89 128.06 34.1104 128.06 34.441V39.2903C128.06 42.5415 125.686 44.9111 122.43 44.9111H120.995Z" fill="#7C9A35"/>
<path d="M169.264 55.9322C166.008 55.9322 163.635 53.5627 163.635 50.3114V45.4621C163.635 45.1315 163.414 44.9111 163.083 44.9111H152.707C149.451 44.9111 147.077 42.5415 147.077 39.2903V38.2984C147.077 37.9678 146.856 37.7473 146.525 37.7473H145.256C142 37.7473 139.626 35.3778 139.626 32.1266V24.522C139.626 20.9401 141.558 19.0114 145.146 19.0114H146.525C146.856 19.0114 147.077 18.791 147.077 18.4604V17.3583C147.077 13.7764 149.009 11.8477 152.596 11.8477H161.703C164.904 11.8477 167.222 14.2172 167.222 17.4685V44.36C167.222 44.6907 167.443 44.9111 167.774 44.9111H169.154C172.686 44.9111 174.729 46.8398 174.729 50.3665V50.4216C174.729 53.9484 172.797 55.9322 169.264 55.9322ZM150.665 36.0942C150.665 36.4248 150.886 36.6452 151.217 36.6452H155.632C155.963 36.6452 156.184 36.4248 156.184 36.0942V20.6646C156.184 20.334 155.963 20.1136 155.632 20.1136H151.217C150.886 20.1136 150.665 20.334 150.665 20.6646V36.0942Z" fill="#33322B"/>
<path d="M195.625 11.8477C198.826 11.8477 201.144 14.2172 201.144 17.4685V39.2903C201.144 42.5415 198.771 44.9111 195.514 44.9111H186.628C183.372 44.9111 180.999 42.5415 180.999 39.2903V34.441C180.999 34.1104 180.778 33.89 180.447 33.89H179.178C175.921 33.89 173.548 31.5204 173.548 28.2692V17.4685C173.548 14.2172 175.866 11.8477 179.067 11.8477C182.268 11.8477 184.586 14.2172 184.586 17.4685V36.0942C184.586 36.4248 184.807 36.6452 185.138 36.6452H189.554C189.885 36.6452 190.106 36.4248 190.106 36.0942V17.4685C190.106 14.2172 192.424 11.8477 195.625 11.8477Z" fill="#33322B"/>
<path d="M210.227 11.0211H215.691C219.279 11.0211 221.21 9.09243 221.21 5.51056C221.21 1.9287 219.279 0 215.691 0H210.227C206.639 0 204.708 1.9287 204.708 5.51056C204.708 9.09243 206.639 11.0211 210.227 11.0211ZM205.26 32.1266V17.4685C205.26 14.2172 207.578 11.8477 210.779 11.8477C213.98 11.8477 216.298 14.2172 216.298 17.4685V33.3389C216.298 33.6695 216.519 33.89 216.85 33.89H218.23C221.762 33.89 223.804 35.8187 223.804 39.3454V39.4005C223.804 42.9273 221.873 44.9111 218.34 44.9111C215.084 44.9111 212.711 42.5415 212.711 39.2903V38.2984C212.711 37.9678 212.49 37.7473 212.159 37.7473H210.889C207.633 37.7473 205.26 35.3778 205.26 32.1266Z" fill="#33322B"/>
<path d="M232.358 44.9111C228.77 44.9111 226.839 42.9273 226.839 39.4005V31.5204C226.839 27.9385 228.439 26.0099 231.419 26.0099H242.844C243.175 26.0099 243.396 25.7894 243.396 25.4588V15.9806C243.396 15.65 243.175 15.4296 242.844 15.4296H238.374C238.043 15.4296 237.822 15.65 237.822 15.9806V17.3583C237.822 20.4442 235.669 22.0974 232.303 22.0974C228.384 22.0974 226.839 20.2238 226.839 16.5868C226.839 13.5009 228.991 11.8477 232.303 11.8477H248.915C252.503 11.8477 254.435 13.7764 254.435 17.3583V18.2951C254.435 21.8769 252.503 23.8056 248.915 23.8056H246.984C246.653 23.8056 246.432 24.0261 246.432 24.3567C246.432 27.9385 244.5 29.8672 240.913 29.8672H236.608C236.276 29.8672 236.056 30.0877 236.056 30.4183V36.0942C236.056 36.4248 236.276 36.6452 236.608 36.6452H242.844C243.175 36.6452 243.396 36.4248 243.396 36.0942V34.8268C243.396 31.7408 245.604 30.0877 248.971 30.0877C252.558 30.0877 254.435 31.9613 254.435 35.5982V40.172C254.435 43.2579 252.282 44.9111 248.971 44.9111H232.358Z" fill="#33322B"/>
<path d="M279.082 39.9822H265.229L286.092 24.9384L300 24.8833L279.082 39.9822ZM279.082 6.7535L300 21.7973H286.092L265.229 6.6984L279.082 6.7535Z" fill="#33322B"/>
<path d="M172.599 47.3234C172.837 47.2456 172.895 47.2426 173.017 47.305C173.249 47.4289 172.659 47.9328 171.166 48.8834L171.107 48.9157C170.802 49.0625 170.338 48.9845 170.364 48.7792C170.385 48.6213 172.137 47.4814 172.599 47.3234Z" fill="#C6D97E"/>
<path d="M166.154 46.8844C166.06 46.7271 166.22 46.5717 166.49 46.7362C166.687 46.8551 166.941 47.1322 167.238 47.5594C167.799 48.3525 167.807 48.3743 167.624 48.4645L167.564 48.4873C167.261 48.569 166.902 48.157 166.154 46.8844Z" fill="#C6D97E"/>
<path d="M169.272 46.6476C169.371 46.5309 169.671 46.5335 169.743 46.6568C169.841 46.8198 169.933 48.1841 169.933 49.5001C169.931 49.6758 169.958 49.7835 170.012 49.8113C170.123 49.8724 171.649 50.5832 171.949 50.7156C172.391 50.9078 172.452 51.3203 172.058 51.3571C170.337 51.5013 169.944 51.4863 169.882 51.4886L169.704 51.9732C168.935 54.0909 168.29 54.743 168.172 53.536C168.115 52.9742 167.932 51.7894 167.912 51.5484C167.897 51.3809 167.883 51.3739 167.251 51.0846L166.139 50.5771C164.88 50.0041 165.036 50.0451 168.054 49.5048L168.281 48.9125C168.628 48.0047 169.174 46.7657 169.272 46.6476ZM169.385 48.9262C169.324 47.846 169.324 47.8458 169.217 48.1065L168.617 49.6036C168.556 49.7511 168.426 49.8382 168.288 49.8204C168.145 49.8018 166.841 50.0466 166.571 50.0892C166.354 50.1231 166.435 50.1807 166.974 50.3854C168.046 50.794 168.319 50.933 168.331 51.0795C168.346 51.2421 168.539 51.9514 168.602 52.5451C168.654 53.0182 168.672 53.005 168.974 52.2412C169.374 51.2275 169.483 51.0097 169.682 50.9942L169.896 51.0021C170.265 50.9968 171.152 50.8975 171.192 50.871C171.242 50.8357 170.245 50.37 169.799 50.2135C169.441 50.0893 169.46 50.1433 169.385 48.9262Z" fill="#C6D97E"/>
<path d="M170.086 52.1055C170.133 51.7518 170.915 52.4349 171.641 53.467L171.615 53.5134L171.655 53.4859C171.927 53.8684 171.797 54.0694 171.42 53.8546C171.241 53.7529 170.072 52.2176 170.086 52.1055ZM171.655 53.4859L171.615 53.5134L171.641 53.467C171.646 53.4734 171.651 53.4795 171.655 53.4859Z" fill="#C6D97E"/>
<path d="M165.406 52.6584L165.252 52.6298C165.051 52.5766 165.096 52.4817 165.456 52.2707L165.406 52.6584ZM166.115 51.9213C166.87 51.5378 167.227 51.4699 167.271 51.6929C167.299 51.8365 165.646 52.6896 165.406 52.6584L165.456 52.2707C165.614 52.1784 165.831 52.0636 166.115 51.9213Z" fill="#C6D97E"/>
<path d="M216.616 1.52558C216.808 1.36426 216.861 1.3398 216.997 1.35224C217.259 1.38021 216.901 2.06808 215.872 3.50788L215.83 3.55972C215.603 3.80987 215.143 3.911 215.09 3.71087C215.05 3.55673 216.247 1.8448 216.616 1.52558Z" fill="#C6D97E"/>
<path d="M210.475 3.52803C210.33 3.41722 210.42 3.21321 210.731 3.26513C210.959 3.30164 211.298 3.46338 211.734 3.74848C212.552 4.27415 212.567 4.29151 212.431 4.44357L212.384 4.48723C212.134 4.676 211.647 4.4282 210.475 3.52803Z" fill="#C6D97E"/>
<path d="M213.278 2.14263C213.325 1.99765 213.605 1.88775 213.718 1.97508C213.87 2.08956 214.467 3.32015 214.961 4.5406C215.024 4.70433 215.09 4.79383 215.15 4.79968C215.276 4.8147 216.958 4.90317 217.286 4.91384C217.768 4.92679 217.979 5.2867 217.627 5.4682C216.086 6.24518 215.716 6.3781 215.659 6.4036L215.676 6.91931C215.757 9.17057 215.403 10.0164 214.841 8.94119C214.578 8.44139 213.964 7.41129 213.855 7.19546C213.779 7.04551 213.762 7.04457 213.068 7.01244L211.847 6.95765C210.464 6.89704 210.624 6.87674 213.22 5.24732L213.209 4.61322C213.19 3.6419 213.231 2.28908 213.278 2.14263ZM214.237 4.21328C213.775 3.23461 213.775 3.23446 213.774 3.516L213.779 5.12856C213.778 5.28801 213.69 5.41757 213.555 5.45256C213.416 5.48876 212.299 6.20318 212.064 6.34371C211.876 6.45635 211.972 6.47942 212.549 6.46781C213.696 6.44588 214.001 6.47276 214.067 6.60403C214.142 6.74914 214.587 7.33464 214.868 7.8617C215.094 8.28081 215.105 8.26204 215.099 7.44091C215.09 6.35137 215.11 6.10842 215.289 6.01964L215.49 5.94693C215.83 5.80436 216.615 5.38056 216.642 5.34106C216.675 5.28966 215.576 5.23051 215.103 5.25236C214.725 5.27085 214.763 5.31382 214.237 4.21328Z" fill="#C6D97E"/>
<path d="M216.08 6.89907C215.991 6.55368 216.972 6.89477 218.033 7.58008L218.025 7.63314L218.053 7.59241C218.448 7.84542 218.403 8.0805 217.973 8.02222C217.768 7.99497 216.109 7.00844 216.08 6.89907ZM218.053 7.59241L218.025 7.63314L218.033 7.58008C218.039 7.58433 218.046 7.58814 218.053 7.59241Z" fill="#C6D97E"/>
<path d="M211.947 9.16169L211.794 9.1928C211.588 9.21832 211.594 9.11351 211.849 8.78326L211.947 9.16169ZM212.328 8.21317C212.885 7.57518 213.19 7.3788 213.314 7.56924C213.394 7.69188 212.181 9.10093 211.947 9.16169L211.849 8.78326C211.96 8.63892 212.118 8.45117 212.328 8.21317Z" fill="#C6D97E"/>
</svg>
