<svg width="300" height="56" viewBox="0 0 300 56" fill="none" xmlns="http://www.w3.org/2000/svg">
<path d="M20.9178 39.9822L0 24.8833L13.9084 24.9384L34.7711 39.9822H20.9178ZM20.9178 6.7535L34.7711 6.6984L13.9084 21.7973H0L20.9178 6.7535Z" fill="#E7E1D2"/>
<path d="M50.0102 44.9111C46.8091 44.9111 44.491 42.5415 44.491 39.2903V28.4896C44.491 25.2384 46.8643 22.8688 50.1206 22.8688H51.39C51.7212 22.8688 51.9419 22.6484 51.9419 22.3178V17.4685C51.9419 14.2173 54.3152 11.8477 57.5715 11.8477H60.4967C60.8279 11.8477 61.0486 11.6273 61.0486 11.2967V6.33715C61.0486 2.75528 63.6427 0.826587 66.5679 0.826587C69.8242 0.826587 72.0871 3.19613 72.0871 6.44736V32.2368C72.0871 35.8187 70.1554 37.7474 66.5679 37.7474H65.1881C64.8569 37.7474 64.6361 37.9678 64.6361 38.2984V39.4005C64.6361 42.9824 62.7044 44.9111 59.1169 44.9111H50.0102ZM55.5294 36.0942C55.5294 36.4248 55.7502 36.6452 56.0814 36.6452H60.4967C60.8279 36.6452 61.0486 36.4248 61.0486 36.0942V20.6646C61.0486 20.334 60.8279 20.1136 60.4967 20.1136H56.0814C55.7502 20.1136 55.5294 20.334 55.5294 20.6646V36.0942Z" fill="#AEC84B"/>
<path d="M81.722 44.9111C78.1345 44.9111 76.2028 42.9824 76.2028 39.4005V24.7975C76.2028 21.2157 78.1345 19.287 81.722 19.287H82.8258C83.157 19.287 83.3778 19.0665 83.3778 18.7359V17.3583C83.3778 13.7764 85.3095 11.8477 88.897 11.8477H98.2796C101.867 11.8477 103.799 13.8315 103.799 17.3583V26.1752C103.799 29.757 102.198 31.6857 99.2179 31.6857H87.7931C87.462 31.6857 87.2412 31.9062 87.2412 32.2368V40.7782C87.2412 41.1088 87.462 41.3292 87.7931 41.3292H92.2637C92.5948 41.3292 92.8156 41.1088 92.8156 40.7782V38.8495C92.8156 35.7635 94.9681 34.1104 98.3348 34.1104C101.922 34.1104 103.799 35.984 103.799 39.6209V40.172C103.799 43.2579 101.646 44.9111 98.3348 44.9111H81.722ZM87.2412 22.8688C87.2412 23.1995 87.462 23.4199 87.7931 23.4199H94.0298C94.361 23.4199 94.5818 23.1995 94.5818 22.8688V15.9806C94.5818 15.65 94.361 15.4296 94.0298 15.4296H87.7931C87.462 15.4296 87.2412 15.65 87.2412 15.9806V22.8688Z" fill="#AEC84B"/>
<path d="M120.995 44.9111C117.739 44.9111 115.365 42.5415 115.365 39.2903V34.441C115.365 34.1104 115.145 33.89 114.814 33.89H113.544C110.288 33.89 107.915 31.5204 107.915 28.2692V17.4685C107.915 14.2173 110.233 11.8477 113.434 11.8477C116.635 11.8477 118.953 14.2173 118.953 17.4685V36.0942C118.953 36.4248 119.174 36.6452 119.505 36.6452H123.92C124.251 36.6452 124.472 36.4248 124.472 36.0942V17.4685C124.472 14.2173 126.79 11.8477 129.991 11.8477C133.193 11.8477 135.511 14.2173 135.511 17.4685V28.2692C135.511 31.5204 133.137 33.89 129.881 33.89H128.612C128.28 33.89 128.06 34.1104 128.06 34.441V39.2903C128.06 42.5415 125.686 44.9111 122.43 44.9111H120.995Z" fill="#AEC84B"/>
<path d="M169.264 55.9322C166.008 55.9322 163.635 53.5627 163.635 50.3114V45.4621C163.635 45.1315 163.414 44.9111 163.083 44.9111H152.707C149.451 44.9111 147.077 42.5415 147.077 39.2903V38.2984C147.077 37.9678 146.856 37.7474 146.525 37.7474H145.256C142 37.7474 139.626 35.3778 139.626 32.1266V24.522C139.626 20.9401 141.558 19.0114 145.146 19.0114H146.525C146.856 19.0114 147.077 18.791 147.077 18.4604V17.3583C147.077 13.7764 149.009 11.8477 152.596 11.8477H161.703C164.904 11.8477 167.222 14.2173 167.222 17.4685V44.36C167.222 44.6907 167.443 44.9111 167.774 44.9111H169.154C172.686 44.9111 174.729 46.8398 174.729 50.3665V50.4216C174.729 53.9484 172.797 55.9322 169.264 55.9322ZM150.665 36.0942C150.665 36.4248 150.886 36.6452 151.217 36.6452H155.632C155.963 36.6452 156.184 36.4248 156.184 36.0942V20.6646C156.184 20.334 155.963 20.1136 155.632 20.1136H151.217C150.886 20.1136 150.665 20.334 150.665 20.6646V36.0942Z" fill="#E7E1D2"/>
<path d="M195.625 11.8477C198.826 11.8477 201.144 14.2173 201.144 17.4685V39.2903C201.144 42.5415 198.771 44.9111 195.514 44.9111H186.628C183.372 44.9111 180.999 42.5415 180.999 39.2903V34.441C180.999 34.1104 180.778 33.89 180.447 33.89H179.178C175.921 33.89 173.548 31.5204 173.548 28.2692V17.4685C173.548 14.2173 175.866 11.8477 179.067 11.8477C182.268 11.8477 184.586 14.2173 184.586 17.4685V36.0942C184.586 36.4248 184.807 36.6452 185.138 36.6452H189.554C189.885 36.6452 190.106 36.4248 190.106 36.0942V17.4685C190.106 14.2173 192.424 11.8477 195.625 11.8477Z" fill="#E7E1D2"/>
<path d="M210.227 11.0211H215.691C219.279 11.0211 221.21 9.09243 221.21 5.51056C221.21 1.9287 219.279 0 215.691 0H210.227C206.639 0 204.708 1.9287 204.708 5.51056C204.708 9.09243 206.639 11.0211 210.227 11.0211ZM205.26 32.1266V17.4685C205.26 14.2173 207.578 11.8477 210.779 11.8477C213.98 11.8477 216.298 14.2173 216.298 17.4685V33.3389C216.298 33.6695 216.519 33.89 216.85 33.89H218.23C221.762 33.89 223.804 35.8187 223.804 39.3454V39.4005C223.804 42.9273 221.873 44.9111 218.34 44.9111C215.084 44.9111 212.711 42.5415 212.711 39.2903V38.2984C212.711 37.9678 212.49 37.7474 212.159 37.7474H210.889C207.633 37.7474 205.26 35.3778 205.26 32.1266Z" fill="#E7E1D2"/>
<path d="M232.358 44.9111C228.77 44.9111 226.839 42.9273 226.839 39.4005V31.5204C226.839 27.9386 228.439 26.0099 231.419 26.0099H242.844C243.175 26.0099 243.396 25.7894 243.396 25.4588V15.9806C243.396 15.65 243.175 15.4296 242.844 15.4296H238.374C238.043 15.4296 237.822 15.65 237.822 15.9806V17.3583C237.822 20.4442 235.669 22.0974 232.303 22.0974C228.384 22.0974 226.839 20.2238 226.839 16.5868C226.839 13.5009 228.991 11.8477 232.303 11.8477H248.915C252.503 11.8477 254.435 13.7764 254.435 17.3583V18.2951C254.435 21.8769 252.503 23.8056 248.915 23.8056H246.984C246.653 23.8056 246.432 24.0261 246.432 24.3567C246.432 27.9386 244.5 29.8672 240.913 29.8672H236.608C236.276 29.8672 236.056 30.0877 236.056 30.4183V36.0942C236.056 36.4248 236.276 36.6452 236.608 36.6452H242.844C243.175 36.6452 243.396 36.4248 243.396 36.0942V34.8268C243.396 31.7408 245.604 30.0877 248.971 30.0877C252.558 30.0877 254.435 31.9613 254.435 35.5982V40.172C254.435 43.2579 252.282 44.9111 248.971 44.9111H232.358Z" fill="#E7E1D2"/>
<path d="M279.082 39.9822H265.229L286.092 24.9384L300 24.8833L279.082 39.9822ZM279.082 6.7535L300 21.7973H286.092L265.229 6.6984L279.082 6.7535Z" fill="#E7E1D2"/>
<path d="M172.632 46.9944C172.87 46.9167 172.928 46.9139 173.049 46.9763C173.281 47.1002 172.691 47.6039 171.198 48.5545L171.139 48.5868C170.834 48.7335 170.37 48.6557 170.397 48.4504C170.417 48.2924 172.17 47.152 172.632 46.9944Z" fill="#5C7327"/>
<path d="M166.522 46.4077C166.719 46.5266 166.973 46.803 167.27 47.2301C167.831 48.0233 167.839 48.0455 167.656 48.1357L167.596 48.1581C167.311 48.2357 166.976 47.8723 166.308 46.7591L166.522 46.4077ZM166.186 46.5555C166.092 46.3983 166.253 46.2432 166.522 46.4077L166.308 46.7591C166.269 46.6936 166.228 46.6262 166.186 46.5555Z" fill="#5C7327"/>
<path d="M169.304 46.3182C169.403 46.2016 169.704 46.2049 169.776 46.3282C169.874 46.4923 169.965 47.8563 169.965 49.1717C169.963 49.3471 169.991 49.454 170.044 49.482C170.155 49.5431 171.682 50.2544 171.982 50.3866C172.423 50.5788 172.484 50.9909 172.09 51.0277C170.369 51.1719 169.976 51.1572 169.913 51.1594L169.736 51.6444C168.967 53.7621 168.322 54.4137 168.204 53.2066C168.147 52.6451 167.965 51.4619 167.944 51.22C167.93 51.0523 167.915 51.045 167.283 50.7557L166.172 50.2486C164.913 49.6756 165.068 49.7166 168.086 49.1762L168.314 48.584C168.66 47.6756 169.206 46.4349 169.304 46.3182ZM169.417 48.5978C169.356 47.5172 169.356 47.517 169.249 47.7778L168.649 49.2751C168.589 49.4226 168.458 49.5094 168.32 49.4915C168.177 49.4729 166.874 49.7179 166.604 49.7606C166.386 49.7945 166.467 49.8516 167.006 50.0563C168.078 50.4651 168.351 50.604 168.363 50.7506C168.378 50.9132 168.571 51.6227 168.634 52.2164C168.687 52.6892 168.704 52.6757 169.006 51.912C169.463 50.7543 169.541 50.6347 169.806 50.6691C170.025 50.6976 171.179 50.5725 171.224 50.5422C171.271 50.5055 170.276 50.0408 169.831 49.8846C169.473 49.7605 169.492 49.8145 169.417 48.5978Z" fill="#5C7327"/>
<path d="M170.119 51.7767C170.165 51.4205 170.957 52.1142 171.688 53.1573C171.959 53.5397 171.829 53.7403 171.452 53.5255C171.273 53.4235 170.104 51.8887 170.119 51.7767Z" fill="#5C7327"/>
<path d="M165.438 52.3289C165.078 52.2821 165.054 52.1957 165.488 51.9413L165.438 52.3289ZM166.147 51.592C166.902 51.2087 167.258 51.141 167.302 51.3638C167.33 51.5073 165.678 52.3601 165.438 52.3289L165.488 51.9413C165.646 51.849 165.863 51.7343 166.147 51.592Z" fill="#5C7327"/>
<path d="M216.649 1.19639C216.84 1.03525 216.893 1.01108 217.029 1.02351C217.291 1.05154 216.932 1.73932 215.904 3.17907L215.862 3.23095C215.634 3.48105 215.175 3.5823 215.122 3.38198C215.082 3.22781 216.28 1.51515 216.649 1.19639Z" fill="#5C7327"/>
<path d="M210.763 2.93664C210.991 2.97317 211.33 3.13432 211.766 3.41927C212.584 3.94503 212.599 3.9628 212.463 4.11487L212.416 4.15791C212.18 4.33669 211.734 4.12496 210.697 3.34225L210.763 2.93664ZM210.508 3.19917C210.362 3.08837 210.452 2.88472 210.763 2.93664L210.697 3.34225C210.636 3.29624 210.573 3.24917 210.508 3.19917Z" fill="#5C7327"/>
<path d="M213.31 1.81325C213.358 1.66833 213.638 1.55895 213.751 1.64634C213.903 1.76181 214.5 2.99233 214.993 4.21222C215.057 4.37559 215.122 4.4644 215.182 4.47041C215.308 4.48543 216.991 4.57412 217.318 4.58477C217.8 4.59777 218.01 4.95737 217.659 5.13885C216.117 5.91596 215.748 6.04909 215.69 6.07455L215.708 6.5905C215.789 8.84168 215.435 9.68724 214.873 8.612C214.61 8.11241 213.997 7.0835 213.887 6.86693C213.811 6.71685 213.794 6.71572 213.1 6.68358L211.879 6.629C210.497 6.56839 210.656 6.54825 213.252 4.91881L213.241 4.2846C213.222 3.31271 213.263 1.95826 213.31 1.81325ZM214.269 3.88487C213.807 2.90591 213.807 2.90562 213.806 3.18727L213.812 4.79992C213.811 4.95943 213.722 5.08889 213.587 5.12379C213.448 5.15999 212.332 5.87418 212.097 6.01496C211.908 6.12763 212.004 6.15039 212.581 6.13878C213.728 6.11684 214.033 6.14371 214.1 6.27505C214.175 6.42016 214.62 7.00589 214.901 7.53292C215.127 7.95175 215.138 7.93267 215.131 7.11164C215.121 5.86733 215.148 5.72731 215.407 5.66006C215.621 5.60447 216.644 5.05724 216.675 5.01209C216.704 4.96075 215.607 4.90169 215.135 4.92351C214.758 4.942 214.795 4.98507 214.269 3.88487Z" fill="#5C7327"/>
<path d="M216.112 6.57028C216.022 6.22252 217.016 6.56976 218.085 7.26382C218.48 7.51683 218.435 7.75145 218.005 7.69316C217.8 7.66569 216.141 6.67966 216.112 6.57028Z" fill="#5C7327"/>
<path d="M212.033 8.75377C211.682 8.84476 211.627 8.77364 211.934 8.37545L212.033 8.75377ZM212.414 7.80536C212.97 7.16767 213.275 6.97168 213.4 7.16184C213.479 7.28447 212.267 8.69301 212.033 8.75377L211.934 8.37545C212.046 8.23112 212.204 8.04334 212.414 7.80536Z" fill="#5C7327"/>
</svg>
