<svg width="31" height="31" viewBox="0 0 31 31" fill="none" xmlns="http://www.w3.org/2000/svg">
<path d="M15.3664 1.80971e-05L14.3953 6.03576C14.2228 7.11551 13.8805 8.1373 13.3967 9.07254C12.9022 10.0322 11.6647 10.3475 10.7875 9.72103C10.7835 9.71696 10.7767 9.7129 10.7712 9.71019L6.89791 6.93912L9.68773 10.7989C9.68773 10.7989 9.69592 10.8098 9.69865 10.8152C10.328 11.6907 10.0187 12.9297 9.06281 13.4275C8.12857 13.9145 7.10845 14.2617 6.03091 14.4408L-4.93599e-05 15.4411L6.03566 16.4121C7.1154 16.5846 8.13723 16.927 9.07247 17.4108C10.0322 17.9054 10.3474 19.1428 9.72096 20.02C9.7169 20.0241 9.71283 20.0309 9.71013 20.0363L6.93905 23.9096L10.7989 21.1198C10.7989 21.1198 10.8097 21.1116 10.8152 21.1089C11.6907 20.4795 12.9296 20.7888 13.4275 21.7447C13.9144 22.679 14.2617 23.6991 14.4408 24.7766L15.4411 30.8076L16.4121 24.7718C16.5846 23.692 16.927 22.6703 17.4107 21.7351C17.9053 20.7754 19.1427 20.4601 20.0199 21.0866C20.024 21.0907 20.0308 21.0947 20.0363 21.0974L23.9096 23.8685L21.1197 20.0087C21.1197 20.0087 21.1116 19.9978 21.1088 19.9924C20.4795 19.1169 20.7887 17.878 21.7447 17.3801C22.6789 16.8932 23.699 16.5458 24.7765 16.3667L30.8075 15.3665L24.7718 14.3954C23.692 14.2229 22.6702 13.8806 21.735 13.3968C20.7753 12.9022 20.4601 11.6648 21.0865 10.7876C21.0906 10.7835 21.0947 10.7767 21.0974 10.7713L23.8684 6.89798L20.0086 9.6878C20.0086 9.6878 19.9978 9.69598 19.9923 9.69871C19.1168 10.3281 17.8779 10.0188 17.38 9.06288C16.8931 8.12864 16.5457 7.10845 16.3666 6.03091L15.3664 1.80971e-05Z" fill="#5C7327"/>
</svg>
